<svg xmlns="http://www.w3.org/2000/svg" width="221" height="49" viewBox="0 0 221 49" fill="none"><path fill-rule="evenodd" clip-rule="evenodd" d="M28.5705 1.24052L7.00571 1.14624L1.34229 13.6191L28.6078 48.2514L28.5145 17.8697L23.2078 17.8703L23.2331 32.3977L13.0042 13.5758L28.5145 13.5726L28.5708 1.24081L28.5705 1.24052ZM10.5947 7.31605L11.8069 5.66594L22.4569 5.69678L22.4563 9.13318L11.811 9.052L10.5944 7.31605H10.5947Z" fill="#003F60"></path><path fill-rule="evenodd" clip-rule="evenodd" d="M32.0142 1.14648L32.0133 13.6165L38.2878 13.6168L32.0142 1.14648Z" fill="#FABC5F"></path><path fill-rule="evenodd" clip-rule="evenodd" d="M35.9015 1.19886L42.0466 13.5708L48.9775 1.14648L35.9015 1.19886Z" fill="#FABC5F"></path><path fill-rule="evenodd" clip-rule="evenodd" d="M52.5524 1.14648L45.5605 13.636L58.8251 13.6194L52.5524 1.14648Z" fill="#FABC5F"></path><path fill-rule="evenodd" clip-rule="evenodd" d="M41.9686 17.8728L56.0965 17.876L34.3318 45.0375L41.9686 17.8728Z" fill="#FABC5F"></path><path fill-rule="evenodd" clip-rule="evenodd" d="M38.3063 17.8728L31.973 48.2517L32.0132 17.8696L38.3063 17.8728Z" fill="#FABC5F"></path><path d="M214.842 11.5641C216.681 11.5641 218.172 10.0753 218.172 8.23882C218.172 6.40234 216.681 4.91357 214.842 4.91357C213.003 4.91357 211.512 6.40234 211.512 8.23882C211.512 10.0753 213.003 11.5641 214.842 11.5641Z" stroke="#003F60" stroke-width="0.352821" stroke-miterlimit="22.9256"></path><path d="M81.3872 21.8867H68.3572C68.3572 23.9997 68.9338 25.6231 70.0927 26.7576C71.119 27.7478 72.4334 28.2427 74.0419 28.2427C75.8753 28.2427 77.403 27.7015 78.6312 26.6191L79.9804 28.9335C79.4847 29.4287 78.7236 29.8605 77.7032 30.2231C76.4173 30.7012 74.9877 30.9371 73.4136 30.9371C71.1364 30.9371 69.2048 30.1655 67.6194 28.6224C65.8492 26.924 64.9672 24.6384 64.9672 21.7712C64.9672 18.789 65.8722 16.3937 67.6884 14.5917C69.3086 12.9855 71.2285 12.1795 73.4483 12.1795C76.0253 12.1795 78.049 12.9049 79.5136 14.3615C80.932 15.7605 81.641 17.6143 81.641 19.9232C81.641 20.637 81.5545 21.2876 81.3872 21.8864V21.8867ZM73.6039 14.8742C72.1682 14.8742 70.9689 15.3406 70.0003 16.2674C69.072 17.154 68.5533 18.2536 68.4262 19.572H78.4584C78.4584 18.2649 78.0549 17.177 77.2419 16.3017C76.3482 15.3517 75.1375 14.8739 73.6039 14.8739V14.8742ZM96.0309 30.9371H95.2005L87.4516 12.4906H90.9803L95.7369 25.1334L100.632 12.4906H103.987L96.0309 30.9371ZM121.185 28.5191C119.905 30.1311 117.939 30.9371 115.298 30.9371C113.88 30.9371 112.652 30.4189 111.614 29.3883C110.571 28.3577 110.052 27.0797 110.052 25.5425C110.052 23.7059 110.853 22.1573 112.456 20.8849C114.059 19.6183 116.1 18.9851 118.585 18.9851C119.26 18.9851 120.026 19.1349 120.88 19.4341C120.88 16.5092 119.577 15.0471 116.965 15.0471C114.958 15.0471 113.419 15.5883 112.335 16.6707L110.986 13.9763C111.597 13.481 112.439 13.0606 113.511 12.7097C114.589 12.3585 115.616 12.1801 116.596 12.1801C119.219 12.1801 121.128 12.7789 122.315 13.9704C123.503 15.1623 124.097 17.0565 124.097 19.6587V26.1416C124.097 27.7248 124.57 28.7842 125.515 29.3138V30.9028C124.206 30.9028 123.226 30.7186 122.58 30.35C121.929 29.9816 121.468 29.3711 121.185 28.5191H121.185ZM120.879 21.7141C119.871 21.4837 119.161 21.3688 118.758 21.3688C117.143 21.3688 115.823 21.7889 114.802 22.624C113.782 23.4588 113.269 24.449 113.269 25.589C113.269 27.4716 114.376 28.4158 116.584 28.4158C118.204 28.4158 119.634 27.6442 120.879 26.1014V21.7144V21.7141ZM143.877 28.5191C142.597 30.1311 140.631 30.9371 137.991 30.9371C136.572 30.9371 135.344 30.4189 134.307 29.3883C133.263 28.3577 132.744 27.0797 132.744 25.5425C132.744 23.7059 133.545 22.1573 135.148 20.8849C136.751 19.6183 138.792 18.9851 141.277 18.9851C141.952 18.9851 142.719 19.1349 143.572 19.4341C143.572 16.5092 142.269 15.0471 139.657 15.0471C137.651 15.0471 136.111 15.5883 135.027 16.6707L133.678 13.9763C134.289 13.481 135.131 13.0606 136.203 12.7097C137.282 12.3585 138.308 12.1801 139.288 12.1801C141.911 12.1801 143.82 12.7789 145.007 13.9704C146.195 15.1623 146.789 17.0565 146.789 19.6587V26.1416C146.789 27.7248 147.262 28.7842 148.207 29.3138V30.9028C146.898 30.9028 145.918 30.7186 145.273 30.35C144.621 29.9816 144.16 29.3711 143.877 28.5191H143.877ZM143.572 21.7141C142.563 21.4837 141.853 21.3688 141.45 21.3688C139.836 21.3688 138.515 21.7889 137.495 22.624C136.474 23.4588 135.961 24.449 135.961 25.589C135.961 27.4716 137.068 28.4158 139.276 28.4158C140.896 28.4158 142.326 27.6442 143.572 26.1014V21.7144V21.7141ZM167.509 30.5918V20.073C167.509 18.15 167.221 16.8028 166.638 16.0314C166.062 15.2598 165.087 14.8742 163.727 14.8742C162.995 14.8742 162.228 15.093 161.426 15.5304C160.631 15.9738 160.014 16.5092 159.587 17.154V30.5918H156.37V12.5252H158.567L159.582 14.8512C160.642 13.0722 162.372 12.1798 164.776 12.1798C168.743 12.1798 170.726 14.5864 170.726 19.4053V30.5918H167.509V30.5918ZM180.93 15.0471H178.82V12.5252H180.93V8.74834L184.147 7.51636V12.5252H189.129V15.0471H184.147V24.0341C184.147 25.5538 184.407 26.6363 184.92 27.2811C185.433 27.92 186.263 28.2424 187.405 28.2424C188.229 28.2424 189.088 28.0353 189.971 27.6206L190.443 30.4303C189.111 30.7698 187.647 30.9368 186.05 30.9368C184.614 30.9368 183.404 30.4073 182.412 29.342C181.426 28.2768 180.93 26.9354 180.93 25.3117V15.0465L180.93 15.0471ZM208.224 28.5191C206.944 30.1311 204.978 30.9371 202.337 30.9371C200.919 30.9371 199.691 30.4189 198.653 29.3883C197.61 28.3577 197.091 27.0797 197.091 25.5425C197.091 23.7059 197.892 22.1573 199.495 20.8849C201.098 19.6183 203.139 18.9851 205.624 18.9851C206.298 18.9851 207.065 19.1349 207.918 19.4341C207.918 16.5092 206.615 15.0471 204.003 15.0471C201.997 15.0471 200.458 15.5883 199.374 16.6707L198.025 13.9763C198.636 13.481 199.478 13.0606 200.55 12.7097C201.628 12.3585 202.654 12.1801 203.635 12.1801C206.258 12.1801 208.166 12.7789 209.354 13.9704C210.542 15.1623 211.135 17.0565 211.135 19.6587V26.1416C211.135 27.7248 211.608 28.7842 212.554 29.3138V30.9028C211.245 30.9028 210.265 30.7186 209.619 30.35C208.968 29.9816 208.506 29.3711 208.224 28.5191H208.224ZM207.918 21.7141C206.909 21.4837 206.2 21.3688 205.796 21.3688C204.182 21.3688 202.862 21.7889 201.841 22.624C200.821 23.4588 200.307 24.449 200.307 25.589C200.307 27.4716 201.414 28.4158 203.623 28.4158C205.243 28.4158 206.673 27.6442 207.918 26.1014V21.7144V21.7141Z" fill="#003F60"></path><path d="M92.3026 42.08C92.1997 42.2499 92.0188 42.3899 91.7612 42.499C91.5039 42.6064 91.2355 42.6611 90.9546 42.6611C90.4289 42.6611 90.0137 42.5287 89.7127 42.2653C89.4117 42.002 89.2602 41.6281 89.2602 41.1436C89.2602 40.5765 89.4723 40.1328 89.8969 39.8133C90.3211 39.4938 90.9249 39.3335 91.7064 39.3335C91.8404 39.3335 91.9981 39.3553 92.1808 39.399C92.1808 38.8257 91.8171 38.5388 91.0904 38.5388C90.6615 38.5388 90.301 38.6104 90.0123 38.7539L89.7658 37.8658C90.1588 37.6787 90.6271 37.5853 91.17 37.5853C91.9156 37.5853 92.4631 37.7552 92.811 38.0948C93.159 38.4344 93.3321 39.0763 93.3321 40.0237V41.0689C93.3321 41.7201 93.4632 42.1297 93.7251 42.2965C93.6299 42.4632 93.5255 42.5645 93.4099 42.6034C93.2945 42.6424 93.1619 42.6611 93.0121 42.6611C92.8466 42.6611 92.6986 42.6002 92.5675 42.4772C92.4363 42.3555 92.3475 42.2231 92.3023 42.08H92.3026ZM92.1901 40.2588C91.9952 40.2215 91.8501 40.2029 91.7516 40.2029C90.8515 40.2029 90.4021 40.5003 90.4021 41.0939C90.4021 41.5347 90.6565 41.7544 91.1635 41.7544C91.8483 41.7544 92.1901 41.4084 92.1901 40.7182V40.2585V40.2588ZM99.2292 42.5677V42.2717C99.1339 42.3745 98.9748 42.4649 98.7487 42.5444C98.524 42.6224 98.29 42.6614 98.0496 42.6614C97.3663 42.6614 96.8299 42.4449 96.4383 42.0134C96.0466 41.5804 95.8499 40.9772 95.8499 40.2032C95.8499 39.4304 96.0746 38.801 96.5239 38.3151C96.9747 37.8289 97.538 37.5859 98.2134 37.5859C98.5864 37.5859 98.925 37.6621 99.2292 37.8149V35.8595L100.371 35.5854V42.5679H99.2292V42.5677ZM99.2292 38.849C98.9859 38.6544 98.7315 38.5577 98.4663 38.5577C98.0077 38.5577 97.6568 38.6965 97.4086 38.9753C97.1621 39.254 97.0388 39.653 97.0388 40.1732C97.0388 41.1905 97.5304 41.6982 98.5115 41.6982C98.6208 41.6982 98.7565 41.6656 98.9156 41.6002C99.0762 41.5347 99.1808 41.4678 99.2292 41.4009V38.849V38.849ZM102.7 40.1124C102.7 39.3661 102.916 38.7585 103.346 38.2898C103.777 37.8207 104.347 37.5856 105.053 37.5856C105.796 37.5856 106.371 37.8114 106.783 38.2618C107.194 38.712 107.4 39.3291 107.4 40.1127C107.4 40.8916 107.191 41.5117 106.773 41.9712C106.353 42.4309 105.78 42.6614 105.053 42.6614C104.31 42.6614 103.732 42.4292 103.32 41.9651C102.907 41.5007 102.701 40.8823 102.701 40.1127L102.7 40.1124ZM103.889 40.1124C103.889 41.1887 104.278 41.7262 105.053 41.7262C105.409 41.7262 105.69 41.5859 105.899 41.3072C106.106 41.0267 106.211 40.628 106.211 40.1124C106.211 39.0515 105.825 38.5202 105.053 38.5202C104.696 38.5202 104.414 38.6605 104.205 38.9392C103.994 39.2197 103.889 39.6108 103.889 40.1124ZM112.655 38.7446C112.451 38.6075 112.228 38.5388 111.985 38.5388C111.72 38.5388 111.484 38.6587 111.278 38.9002C111.072 39.1403 110.969 39.4347 110.969 39.7822V42.5677H109.827V37.679H110.969V38.1277C111.289 37.7663 111.715 37.5856 112.245 37.5856C112.635 37.5856 112.933 37.6447 113.141 37.7648L112.655 38.7448V38.7446ZM118.481 42.5677V39.7403C118.481 39.3227 118.401 39.0189 118.241 38.8272C118.081 38.6354 117.821 38.5388 117.459 38.5388C117.292 38.5388 117.113 38.5857 116.923 38.6805C116.732 38.7739 116.584 38.8924 116.478 39.0326V42.5674H115.336V37.6787H116.158L116.367 38.1353C116.678 37.7692 117.136 37.5853 117.742 37.5853C118.324 37.5853 118.782 37.7599 119.119 38.1088C119.455 38.4562 119.623 38.9439 119.623 39.5671V42.5677H118.481H118.481ZM127.336 43.3513C127.214 43.6769 126.954 43.948 126.553 44.1613C126.153 44.3764 125.687 44.4837 125.155 44.4837V43.474C126.035 43.474 126.475 43.2529 126.475 42.8118C126.475 42.5205 126.353 42.0733 126.109 41.4704L124.575 37.6784H125.764L127.102 41.0558L128.319 37.6784H129.508L127.336 43.3507L127.336 43.3513ZM131.38 40.1124C131.38 39.3661 131.595 38.7585 132.026 38.2898C132.456 37.8207 133.026 37.5856 133.732 37.5856C134.475 37.5856 135.051 37.8114 135.463 38.2618C135.873 38.712 136.079 39.3291 136.079 40.1127C136.079 40.8916 135.87 41.5117 135.452 41.9712C135.032 42.4309 134.46 42.6614 133.733 42.6614C132.989 42.6614 132.412 42.4292 132 41.9651C131.586 41.5007 131.38 40.8823 131.38 40.1127L131.38 40.1124ZM132.569 40.1124C132.569 41.1887 132.957 41.7262 133.732 41.7262C134.088 41.7262 134.369 41.5859 134.578 41.3072C134.786 41.0267 134.89 40.628 134.89 40.1124C134.89 39.0515 134.505 38.5202 133.732 38.5202C133.375 38.5202 133.093 38.6605 132.884 38.9392C132.673 39.2197 132.569 39.6108 132.569 40.1124V40.1124ZM141.661 42.5677V42.1562C141.499 42.2933 141.277 42.4117 140.993 42.5115C140.709 42.6113 140.448 42.6611 140.211 42.6611C139.074 42.6611 138.506 42.0582 138.506 40.8524V37.679H139.648V40.7668C139.648 41.3947 139.931 41.7078 140.494 41.7078C140.754 41.7078 140.994 41.6409 141.217 41.5068C141.439 41.3729 141.587 41.217 141.661 41.0409V37.679H142.803V42.5677H141.661H141.661ZM148.376 38.7446C148.171 38.6075 147.948 38.5388 147.705 38.5388C147.44 38.5388 147.204 38.6587 146.998 38.9002C146.792 39.1403 146.689 39.4347 146.689 39.7822V42.5677H145.547V37.679H146.689V38.1277C147.009 37.7663 147.435 37.5856 147.965 37.5856C148.356 37.5856 148.653 37.6447 148.861 37.7648L148.376 38.7448V38.7446ZM157.031 42.5677V42.2717C156.936 42.3745 156.777 42.4649 156.551 42.5444C156.326 42.6224 156.092 42.6614 155.851 42.6614C155.168 42.6614 154.632 42.4449 154.24 42.0134C153.848 41.5804 153.652 40.9772 153.652 40.2032C153.652 39.4304 153.876 38.801 154.326 38.3151C154.777 37.8289 155.34 37.5859 156.015 37.5859C156.388 37.5859 156.727 37.6621 157.031 37.8149V35.8595L158.173 35.5854V42.5679H157.031V42.5677ZM157.031 38.849C156.788 38.6544 156.533 38.5577 156.268 38.5577C155.81 38.5577 155.459 38.6965 155.21 38.9753C154.964 39.254 154.841 39.653 154.841 40.1732C154.841 41.1905 155.332 41.6982 156.313 41.6982C156.423 41.6982 156.558 41.6656 156.717 41.6002C156.878 41.5347 156.983 41.4678 157.031 41.4009V38.849V38.849ZM163.649 38.7446C163.445 38.6075 163.222 38.5388 162.978 38.5388C162.713 38.5388 162.478 38.6587 162.272 38.9002C162.066 39.1403 161.963 39.4347 161.963 39.7822V42.5677H160.821V37.679H161.963V38.1277C162.283 37.7663 162.708 37.5856 163.239 37.5856C163.629 37.5856 163.927 37.6447 164.134 37.7648L163.649 38.7448V38.7446ZM170.697 40.4738H167.2C167.221 40.8634 167.355 41.1672 167.602 41.3837C167.849 41.6002 168.181 41.7078 168.599 41.7078C169.122 41.7078 169.518 41.574 169.789 41.306L170.232 42.1754C169.83 42.4996 169.231 42.6616 168.432 42.6616C167.686 42.6616 167.096 42.4434 166.661 42.0058C166.228 41.5696 166.011 40.9589 166.011 40.177C166.011 39.4059 166.249 38.7812 166.725 38.3029C167.203 37.8245 167.774 37.5862 168.441 37.5862C169.151 37.5862 169.72 37.798 170.15 38.222C170.579 38.6456 170.794 39.1848 170.794 39.8392C170.794 39.9794 170.761 40.1913 170.697 40.4747L170.697 40.4738ZM167.247 39.614H169.643C169.563 38.8973 169.169 38.5391 168.459 38.5391C167.808 38.5391 167.404 38.8973 167.247 39.614V39.614ZM175.942 42.08C175.84 42.2499 175.659 42.3899 175.401 42.499C175.144 42.6064 174.875 42.6611 174.594 42.6611C174.069 42.6611 173.654 42.5287 173.353 42.2653C173.052 42.002 172.9 41.6281 172.9 41.1436C172.9 40.5765 173.112 40.1328 173.537 39.8133C173.961 39.4938 174.565 39.3335 175.346 39.3335C175.48 39.3335 175.638 39.3553 175.821 39.399C175.821 38.8257 175.457 38.5388 174.73 38.5388C174.301 38.5388 173.941 38.6104 173.652 38.7539L173.406 37.8658C173.799 37.6787 174.267 37.5853 174.81 37.5853C175.555 37.5853 176.103 37.7552 176.451 38.0948C176.799 38.4344 176.972 39.0763 176.972 40.0237V41.0689C176.972 41.7201 177.103 42.1297 177.365 42.2965C177.27 42.4632 177.165 42.5645 177.05 42.6034C176.934 42.6424 176.802 42.6611 176.652 42.6611C176.486 42.6611 176.338 42.6002 176.207 42.4772C176.076 42.3555 175.987 42.2231 175.942 42.08H175.942ZM175.83 40.2588C175.635 40.2215 175.49 40.2029 175.391 40.2029C174.491 40.2029 174.042 40.5003 174.042 41.0939C174.042 41.5347 174.296 41.7544 174.803 41.7544C175.488 41.7544 175.83 41.4084 175.83 40.7182V40.2585V40.2588ZM185.387 42.5677V39.5034C185.387 38.8601 185.098 38.5391 184.521 38.5391C184.351 38.5391 184.186 38.5889 184.027 38.6901C183.868 38.7899 183.757 38.9066 183.693 39.0376V42.5677H182.551V39.3242C182.551 39.0841 182.476 38.8927 182.326 38.751C182.176 38.6093 181.966 38.5391 181.694 38.5391C181.551 38.5391 181.395 38.5921 181.225 38.6995C181.057 38.8068 180.933 38.9238 180.857 39.053V42.5677H179.715V37.679H180.501L180.735 38.1091C181.052 37.7602 181.462 37.5856 181.965 37.5856C182.615 37.5856 183.104 37.7631 183.433 38.1184C183.576 37.9563 183.776 37.8271 184.032 37.7305C184.289 37.6339 184.545 37.5856 184.801 37.5856C185.347 37.5856 185.771 37.7413 186.074 38.0529C186.378 38.366 186.529 38.7946 186.529 39.3399V42.5677H185.387H185.387ZM188.969 42.2546L189.375 41.3432C189.716 41.6173 190.102 41.7547 190.531 41.7547C190.975 41.7547 191.197 41.5958 191.197 41.2795C191.197 41.0924 191.13 40.94 190.996 40.8215C190.862 40.7031 190.602 40.5614 190.215 40.4008C189.371 40.0504 188.95 39.5596 188.95 38.9287C188.95 38.5051 189.111 38.1763 189.434 37.9394C189.757 37.7043 190.169 37.5859 190.671 37.5859C191.18 37.5859 191.657 37.6997 192.105 37.9272L191.777 38.8106C191.528 38.5988 191.181 38.4929 190.737 38.4929C190.339 38.4929 190.139 38.6517 190.139 38.968C190.139 39.0943 190.205 39.2063 190.336 39.3076C190.467 39.4074 190.746 39.5427 191.175 39.7126C191.606 39.8808 191.915 40.0865 192.103 40.3263C192.292 40.5678 192.386 40.8591 192.386 41.1986C192.386 41.6534 192.217 42.0104 191.88 42.2706C191.545 42.5307 191.088 42.6616 190.509 42.6616C190.183 42.6616 189.921 42.6352 189.726 42.5822C189.529 42.5278 189.276 42.4187 188.969 42.2552V42.2546Z" fill="#003F60"></path><path d="M214.217 6.86719H214.971C215.133 6.86719 215.271 6.8916 215.386 6.94043C215.5 6.98926 215.587 7.06152 215.648 7.15723C215.709 7.25195 215.74 7.36914 215.74 7.50879C215.74 7.61523 215.721 7.70898 215.682 7.79004C215.643 7.87109 215.587 7.93945 215.516 7.99512C215.445 8.0498 215.36 8.09229 215.261 8.12256L215.15 8.17676H214.472L214.469 7.88525H214.977C215.065 7.88525 215.138 7.86963 215.197 7.83838C215.255 7.80713 215.299 7.76465 215.329 7.71094C215.359 7.65625 215.374 7.59473 215.374 7.52637C215.374 7.45215 215.359 7.3877 215.33 7.33301C215.302 7.27734 215.258 7.23486 215.198 7.20557C215.139 7.17529 215.063 7.16016 214.971 7.16016H214.584V9H214.217V6.86719ZM215.434 9L214.933 8.04199L215.318 8.04053L215.827 8.98096V9H215.434Z" fill="#003F60"></path></svg>