<svg width="617" height="167" viewBox="0 0 617 167" fill="none" xmlns="http://www.w3.org/2000/svg">
<path d="M354.343 98.1402V35.1149C354.343 33.7987 354.815 32.685 355.76 31.7738C356.705 30.8626 357.836 30.407 359.152 30.407H417.52C418.836 30.407 419.95 30.8795 420.861 31.8244C421.806 32.7694 422.278 33.9 422.278 35.2162V39.9747C422.278 41.2909 421.806 42.4215 420.861 43.3664C419.95 44.2776 418.836 44.7332 417.52 44.7332H373.427V62.5524H409.319C410.635 62.5524 411.749 63.0249 412.66 63.9699C413.605 64.9148 414.077 66.0285 414.077 67.311V72.1201C414.077 73.4363 413.605 74.5669 412.66 75.5119C411.749 76.4231 410.635 76.8787 409.319 76.8787H373.427V98.1402C373.427 99.5239 372.955 100.688 372.01 101.633C371.099 102.544 369.985 103 368.669 103H359.152C357.836 103 356.705 102.544 355.76 101.633C354.815 100.688 354.343 99.5239 354.343 98.1402ZM430.58 98.3427V35.2162C430.58 33.9 431.053 32.7694 431.998 31.8244C432.943 30.8795 434.073 30.407 435.39 30.407H444.805C446.189 30.407 447.337 30.8795 448.248 31.8244C449.193 32.7694 449.665 33.9 449.665 35.2162V98.2415C449.665 99.5577 449.176 100.688 448.197 101.633C447.252 102.544 446.122 103 444.805 103H435.39C434.073 103 432.943 102.561 431.998 101.684C431.053 100.773 430.58 99.6589 430.58 98.3427ZM539.571 100.823C539.571 102.274 538.711 103 536.989 103H524.84C523.557 103 522.14 102.544 520.588 101.633C519.069 100.688 517.905 99.5577 517.095 98.2415L508.489 84.7758C504.945 79.2411 500.659 76.4737 495.631 76.4737H483.279V98.2415C483.279 99.5577 482.806 100.688 481.861 101.633C480.95 102.544 479.836 103 478.52 103H469.003C467.687 103 466.556 102.544 465.611 101.633C464.666 100.688 464.194 99.5577 464.194 98.2415V35.2162C464.194 33.9 464.649 32.7694 465.561 31.8244C466.472 30.8795 467.586 30.407 468.902 30.407H510.666C518.394 30.407 524.722 32.4825 529.649 36.6336C534.61 40.7847 537.091 46.3869 537.091 53.4403C537.091 63.2612 530.729 69.4203 518.006 71.9176C520.031 72.6601 521.904 73.9426 523.625 75.765C525.346 77.5536 527.32 80.1691 529.548 83.6115L538.761 98.2415C539.301 99.1864 539.571 100.047 539.571 100.823ZM483.279 62.1475H504.844C508.32 62.1475 511.374 61.4556 514.007 60.0719C516.673 58.6882 518.006 56.4777 518.006 53.4403C518.006 50.403 516.673 48.1925 514.007 46.8088C511.374 45.4251 508.32 44.7332 504.844 44.7332H483.279V62.1475Z" fill="#2D2B2C"/>
<path d="M117.271 94.644C110.756 100.361 101.175 103.219 88.5286 103.219C75.9139 103.219 66.3332 100.361 59.7863 94.644C53.2395 88.8956 49.9661 79.8098 49.9661 67.3868C49.9661 54.9637 53.2395 45.894 59.7863 40.1774C66.3332 34.4609 75.9139 31.6027 88.5286 31.6027C101.175 31.6027 110.756 34.4609 117.271 40.1774C123.818 45.894 127.091 54.9637 127.091 67.3868C127.091 79.8098 123.818 88.8956 117.271 94.644ZM104.193 50.2851C100.968 46.4528 95.7461 44.5367 88.5286 44.5367C81.343 44.5367 76.1215 46.4528 72.8641 50.2851C69.6386 54.1174 68.0258 59.8339 68.0258 67.4347C68.0258 75.0035 69.6386 80.704 72.8641 84.5363C76.1215 88.3367 81.343 90.2369 88.5286 90.2369C95.7461 90.2369 100.968 88.3367 104.193 84.5363C107.419 80.704 109.031 75.0035 109.031 67.4347C109.031 59.8339 107.419 54.1174 104.193 50.2851Z" fill="#2D2B2C"/>
<path d="M117.271 94.644L117.73 95.1676L117.73 95.1675L117.271 94.644ZM59.7863 94.644L59.3267 95.1675L59.3282 95.1687L59.7863 94.644ZM59.7863 40.1774L59.3282 39.6527L59.7863 40.1774ZM117.271 40.1774L116.811 40.701L116.813 40.7021L117.271 40.1774ZM72.8641 50.2851L72.3333 49.834L72.3311 49.8366L72.8641 50.2851ZM72.8641 84.5363L72.3311 84.9849L72.3352 84.9896L72.8641 84.5363ZM104.193 84.5363L104.724 84.9871L104.726 84.9849L104.193 84.5363ZM116.811 94.1204C110.471 99.6838 101.082 102.522 88.5286 102.522V103.915C101.268 103.915 111.041 101.037 117.73 95.1676L116.811 94.1204ZM88.5286 102.522C76.0078 102.522 66.6177 99.6842 60.2445 94.1193L59.3282 95.1687C66.0487 101.037 75.8201 103.915 88.5286 103.915V102.522ZM60.246 94.1206C53.9051 88.553 50.6627 79.6972 50.6627 67.3868H49.2695C49.2695 79.9224 52.5739 89.2381 59.3267 95.1675L60.246 94.1206ZM50.6627 67.3868C50.6627 55.076 53.9052 46.2374 60.2445 40.7021L59.3282 39.6527C52.5737 45.5505 49.2695 54.8515 49.2695 67.3868H50.6627ZM60.2445 40.7021C66.6177 35.1373 76.0078 32.2993 88.5286 32.2993V30.9061C75.8201 30.9061 66.0487 33.7846 59.3282 39.6527L60.2445 40.7021ZM88.5286 32.2993C101.082 32.2993 110.471 35.1376 116.811 40.701L117.73 39.6538C111.041 33.7842 101.268 30.9061 88.5286 30.9061V32.2993ZM116.813 40.7021C123.152 46.2374 126.395 55.076 126.395 67.3868H127.788C127.788 54.8515 124.483 45.5505 117.729 39.6527L116.813 40.7021ZM126.395 67.3868C126.395 79.6972 123.152 88.553 116.811 94.1206L117.73 95.1675C124.483 89.2381 127.788 79.9224 127.788 67.3868H126.395ZM104.726 49.8366C101.318 45.7873 95.8581 43.8401 88.5286 43.8401V45.2333C95.6341 45.2333 100.617 47.1184 103.66 50.7337L104.726 49.8366ZM88.5286 43.8401C81.2293 43.8401 75.7723 45.7881 72.3333 49.834L73.3948 50.7363C76.4708 47.1175 81.4568 45.2333 88.5286 45.2333V43.8401ZM72.3311 49.8366C68.9572 53.8452 67.3292 59.7513 67.3292 67.4347H68.7224C68.7224 59.9166 70.3199 54.3897 73.397 50.7337L72.3311 49.8366ZM67.3292 67.4347C67.3292 75.087 68.9576 80.9767 72.3311 84.9849L73.397 84.0878C70.3195 80.4313 68.7224 74.92 68.7224 67.4347H67.3292ZM72.3352 84.9896C75.7746 89.0024 81.231 90.9335 88.5286 90.9335V89.5403C81.4551 89.5403 76.4684 87.671 73.393 84.083L72.3352 84.9896ZM88.5286 90.9335C95.8564 90.9335 101.316 89.0032 104.724 84.9871L103.662 84.0856C100.62 87.6701 95.6358 89.5403 88.5286 89.5403V90.9335ZM104.726 84.9849C108.1 80.9767 109.728 75.087 109.728 67.4347H108.335C108.335 74.92 106.738 80.4313 103.66 84.0878L104.726 84.9849ZM109.728 67.4347C109.728 59.7513 108.1 53.8452 104.726 49.8366L103.66 50.7337C106.737 54.3897 108.335 59.9166 108.335 67.4347H109.728Z" fill="#2D2B2C"/>
<path d="M136.473 98.2246V36.784C136.473 35.4351 136.933 34.3001 137.854 33.3789C138.776 32.4577 139.878 31.9971 141.161 31.9971H168.747C183.026 31.9971 193.406 34.8594 199.887 40.584C206.401 46.2756 209.658 55.2244 209.658 67.4303C209.658 79.6032 206.401 88.5356 199.887 94.2272C193.406 99.9189 183.026 102.765 168.747 102.765H141.161C139.878 102.765 138.776 102.337 137.854 101.482C136.933 100.593 136.473 99.5077 136.473 98.2246ZM155.077 88.7988H168.205C177.055 88.7988 183.075 87.1867 186.267 83.9625C189.458 80.7383 191.053 75.2276 191.053 67.4303C191.053 59.6001 189.458 54.0729 186.267 50.8487C183.075 47.5916 177.055 45.9631 168.205 45.9631H155.077V88.7988Z" fill="#2D2B2C"/>
<path d="M199.887 40.584L199.412 41.1218L199.415 41.1244L199.887 40.584ZM199.887 94.2272L199.415 93.6868L199.414 93.688L199.887 94.2272ZM137.854 101.482L137.356 101.998L137.366 102.008L137.854 101.482ZM155.077 88.7988H154.36V89.5164H155.077V88.7988ZM186.267 50.8487L185.754 51.351L185.757 51.3535L186.267 50.8487ZM155.077 45.9631V45.2455H154.36V45.9631H155.077ZM137.19 98.2246V36.784H135.755V98.2246H137.19ZM137.19 36.784C137.19 35.6179 137.58 34.6677 138.362 33.8863L137.347 32.8714C136.286 33.9325 135.755 35.2523 135.755 36.784H137.19ZM138.362 33.8863C139.151 33.0974 140.071 32.7147 141.161 32.7147V31.2795C139.684 31.2795 138.4 31.818 137.347 32.8714L138.362 33.8863ZM141.161 32.7147H168.747V31.2795H141.161V32.7147ZM168.747 32.7147C182.957 32.7147 193.124 35.5681 199.412 41.1218L200.362 40.0461C193.687 34.1507 183.095 31.2795 168.747 31.2795V32.7147ZM199.415 41.1244C205.717 46.6309 208.941 55.3435 208.941 67.4303H210.376C210.376 55.1053 207.085 45.9203 200.359 40.0436L199.415 41.1244ZM208.941 67.4303C208.941 79.4834 205.718 88.1799 199.415 93.6868L200.359 94.7676C207.085 88.8912 210.376 79.723 210.376 67.4303H208.941ZM199.414 93.688C193.126 99.2099 182.958 102.047 168.747 102.047V103.482C183.094 103.482 193.686 100.628 200.361 94.7665L199.414 93.688ZM168.747 102.047H141.161V103.482H168.747V102.047ZM141.161 102.047C140.055 102.047 139.128 101.685 138.343 100.956L137.366 102.008C138.423 102.989 139.701 103.482 141.161 103.482V102.047ZM138.352 100.965C137.572 100.212 137.19 99.3134 137.19 98.2246H135.755C135.755 99.7019 136.294 100.974 137.356 101.998L138.352 100.965ZM155.077 89.5164H168.205V88.0811H155.077V89.5164ZM168.205 89.5164C177.086 89.5164 183.369 87.9101 186.777 84.4673L185.757 83.4577C182.782 86.4632 177.023 88.0811 168.205 88.0811V89.5164ZM186.777 84.4673C190.169 81.0398 191.771 75.2901 191.771 67.4303H190.336C190.336 75.1651 188.747 80.4368 185.757 83.4577L186.777 84.4673ZM191.771 67.4303C191.771 59.5386 190.17 53.7719 186.777 50.3439L185.757 51.3535C188.746 54.374 190.336 59.6616 190.336 67.4303H191.771ZM186.779 50.3465C183.372 46.8686 177.087 45.2455 168.205 45.2455V46.6807C177.022 46.6807 182.779 48.3147 185.754 51.351L186.779 50.3465ZM168.205 45.2455H155.077V46.6807H168.205V45.2455ZM154.36 45.9631V88.7988H155.795V45.9631H154.36Z" fill="#2D2B2C"/>
<path fill-rule="evenodd" clip-rule="evenodd" d="M21.9079 63.5789L13.3065 55.3515C12.4386 54.5214 12.2563 53.203 12.8664 52.1685L24.648 32.1911C25.1007 31.4234 25.9169 30.9428 26.8078 30.9194L43.0008 30.4933C45.052 30.4393 46.3463 32.6809 45.274 34.4304L27.7497 63.0226C26.5351 65.3816 26.5206 67.4334 26.8487 68.6635L21.8408 63.6556L21.9079 63.5789Z" fill="#F30000"/>
<g filter="url(#filter0_d)">
<path fill-rule="evenodd" clip-rule="evenodd" d="M11.8088 53.8501C11.8398 53.7883 11.8736 53.7271 11.9101 53.6667C13.0288 51.8182 14.5779 49.2366 16.2701 46.2752C15.5547 47.7061 16.681 50.8562 18.1593 53.8867L25.9803 66.9601C26.4946 67.8199 26.4662 68.8993 25.9073 69.7308L17.0296 82.9392C15.9692 84.5168 13.6264 84.4501 12.6576 82.8146L4.36295 68.8118C3.87879 67.9945 3.87998 66.9801 4.3692 66.1658C6.45027 62.7019 9.38489 57.8333 11.8088 53.8501Z" fill="url(#paint0_linear)"/>
</g>
<path fill-rule="evenodd" clip-rule="evenodd" d="M11.8089 53.85C11.8399 53.7882 11.8736 53.7271 11.9102 53.6667C13.0288 51.8183 14.578 49.2366 16.2702 46.2753C15.5546 47.7063 16.6813 50.8571 18.1599 53.8879L45.4256 99.5108C46.456 101.235 45.2139 103.424 43.2055 103.424H26.2639C25.3486 103.424 24.5016 102.94 24.0364 102.152L4.35942 68.8106C3.87736 67.9938 3.87937 66.9813 4.36783 66.1682C6.449 62.7042 9.38444 57.8342 11.8089 53.85Z" fill="url(#paint1_linear)"/>
<rect x="547.975" y="30.5674" width="67.9969" height="16.2194" rx="4.99059" fill="#2D2B2C"/>
<rect x="547.975" y="58.6395" width="67.9969" height="16.2194" rx="4.99059" fill="#2D2B2C"/>
<rect x="547.975" y="86.7115" width="67.9969" height="16.2194" rx="4.99059" fill="#2D2B2C"/>
<path d="M244.816 36.2826C243.397 33.6489 245.305 30.4552 248.296 30.4552H296.364C298.547 30.4552 300.317 32.2251 300.317 34.4084V43.6326C300.317 45.8159 298.547 47.5858 296.364 47.5858H253.263C251.809 47.5858 250.472 46.7873 249.782 45.5068L244.816 36.2826Z" fill="#2D2B2C"/>
<path d="M244.815 97.7274C243.397 100.361 245.304 103.555 248.296 103.555H296.364C298.547 103.555 300.317 101.785 300.317 99.6016V90.3774C300.317 88.1941 298.547 86.4242 296.364 86.4242H253.263C251.808 86.4242 250.471 87.2227 249.782 88.5032L244.815 97.7274Z" fill="#2D2B2C"/>
<path d="M258.978 61.2295C258.071 59.9186 259.009 58.1278 260.604 58.1278H298.34C299.432 58.1278 300.317 59.0128 300.317 60.1044V73.2818C300.317 74.3735 299.432 75.2584 298.34 75.2584H260.604C259.009 75.2584 258.071 73.4677 258.978 72.1567L261.982 67.8182C262.451 67.1414 262.451 66.2449 261.982 65.568L258.978 61.2295Z" fill="#2D2B2C"/>
<path fill-rule="evenodd" clip-rule="evenodd" d="M238.466 71.0005L247.091 79.2507C247.961 80.0831 248.144 81.4051 247.532 82.4425L235.718 102.475C235.264 103.245 234.445 103.727 233.552 103.751L217.314 104.178C215.257 104.232 213.959 101.984 215.035 100.23L232.608 71.5581C233.826 69.1927 233.84 67.1353 233.511 65.9019L238.533 70.9236L238.466 71.0005Z" fill="#F5B300"/>
<g filter="url(#filter1_d)">
<path fill-rule="evenodd" clip-rule="evenodd" d="M248.592 80.7573C248.561 80.8189 248.528 80.8798 248.491 80.94C247.369 82.7936 245.816 85.3824 244.119 88.3519C244.837 86.9171 243.707 83.7581 242.225 80.7192L234.382 67.6098C233.866 66.7477 233.895 65.6652 234.455 64.8315L243.358 51.5864C244.421 50.0044 246.77 50.0714 247.742 51.7114L256.059 65.753C256.545 66.5726 256.544 67.5897 256.053 68.4063C253.966 71.8801 251.023 76.7628 248.592 80.7573Z" fill="url(#paint2_linear)"/>
</g>
<path fill-rule="evenodd" clip-rule="evenodd" d="M248.592 80.7574C248.561 80.8189 248.528 80.8799 248.491 80.94C247.37 82.7936 245.816 85.3824 244.119 88.352C244.837 86.9169 243.707 83.7569 242.224 80.7174L214.883 34.9689C213.85 33.2402 215.095 31.0448 217.109 31.0448H234.098C235.016 31.0448 235.865 31.5298 236.332 32.3202L256.063 65.7542C256.546 66.5733 256.544 67.5886 256.055 68.4039C253.967 71.8779 251.024 76.7619 248.592 80.7574Z" fill="url(#paint3_linear)"/>
<path d="M12.5314 154.598V131.753C12.5314 131.276 12.7023 130.867 13.0443 130.525C13.3863 130.183 13.7954 130.012 14.2717 130.012H17.6792C18.18 130.012 18.5952 130.183 18.925 130.525C19.267 130.867 19.4379 131.276 19.4379 131.753V154.561C19.4379 155.037 19.2608 155.446 18.9067 155.788C18.5647 156.118 18.1556 156.283 17.6792 156.283H14.2717C13.7954 156.283 13.3863 156.124 13.0443 155.807C12.7023 155.477 12.5314 155.074 12.5314 154.598ZM79.6611 154.561V131.753C79.6611 131.276 79.826 130.867 80.1558 130.525C80.4855 130.183 80.8886 130.012 81.3649 130.012H86.7509C87.1784 130.012 87.6303 130.183 88.1066 130.525C88.5829 130.867 88.9737 131.276 89.279 131.753L100.344 148.772V131.716C100.344 131.24 100.509 130.837 100.839 130.507C101.181 130.177 101.59 130.012 102.066 130.012H105.217C105.694 130.012 106.097 130.177 106.426 130.507C106.768 130.837 106.939 131.252 106.939 131.753V154.561C106.939 155.037 106.768 155.446 106.426 155.788C106.097 156.118 105.694 156.283 105.217 156.283H99.1351C98.6588 156.283 98.1703 156.118 97.6695 155.788C97.1688 155.446 96.7719 155.037 96.4787 154.561L86.3479 138.843V154.561C86.3479 155.037 86.1769 155.446 85.8349 155.788C85.5052 156.118 85.1021 156.283 84.6258 156.283H81.4015C80.9252 156.283 80.5161 156.118 80.1741 155.788C79.8321 155.446 79.6611 155.037 79.6611 154.561ZM167.163 154.524V131.716C167.163 131.24 167.334 130.837 167.676 130.507C168.017 130.177 168.427 130.012 168.903 130.012H190.026C190.502 130.012 190.905 130.183 191.235 130.525C191.577 130.867 191.748 131.276 191.748 131.753V133.475C191.748 133.951 191.577 134.36 191.235 134.702C190.905 135.032 190.502 135.197 190.026 135.197H174.069V141.646H187.058C187.534 141.646 187.937 141.817 188.267 142.158C188.609 142.5 188.78 142.903 188.78 143.368V145.108C188.78 145.584 188.609 145.993 188.267 146.335C187.937 146.665 187.534 146.83 187.058 146.83H174.069V154.524C174.069 155.025 173.898 155.446 173.556 155.788C173.226 156.118 172.823 156.283 172.347 156.283H168.903C168.427 156.283 168.017 156.118 167.676 155.788C167.334 155.446 167.163 155.025 167.163 154.524ZM273.955 153.572C271.463 155.758 267.799 156.851 262.963 156.851C258.139 156.851 254.475 155.758 251.971 153.572C249.467 151.373 248.215 147.899 248.215 143.148C248.215 138.397 249.467 134.928 251.971 132.742C254.475 130.556 258.139 129.463 262.963 129.463C267.799 129.463 271.463 130.556 273.955 132.742C276.459 134.928 277.71 138.397 277.71 143.148C277.71 147.899 276.459 151.373 273.955 153.572ZM268.953 136.608C267.72 135.142 265.723 134.409 262.963 134.409C260.215 134.409 258.218 135.142 256.972 136.608C255.739 138.073 255.122 140.259 255.122 143.166C255.122 146.061 255.739 148.241 256.972 149.706C258.218 151.16 260.215 151.886 262.963 151.886C265.723 151.886 267.72 151.16 268.953 149.706C270.187 148.241 270.804 146.061 270.804 143.166C270.804 140.259 270.187 138.073 268.953 136.608ZM333.647 133.475V131.753C333.647 131.252 333.812 130.837 334.141 130.507C334.471 130.177 334.886 130.012 335.387 130.012H358.635C359.136 130.012 359.551 130.177 359.881 130.507C360.21 130.837 360.375 131.252 360.375 131.753V133.475C360.375 133.976 360.21 134.391 359.881 134.721C359.551 135.038 359.136 135.197 358.635 135.197H350.464V154.598C350.464 155.074 350.293 155.477 349.951 155.807C349.622 156.124 349.219 156.283 348.742 156.283H345.28C344.803 156.283 344.394 156.124 344.052 155.807C343.723 155.477 343.558 155.074 343.558 154.598V135.197H335.387C334.886 135.197 334.471 135.038 334.141 134.721C333.812 134.391 333.647 133.976 333.647 133.475ZM418.345 154.524V131.716C418.345 131.24 418.516 130.837 418.858 130.507C419.2 130.177 419.609 130.012 420.086 130.012H441.208C441.685 130.012 442.088 130.183 442.417 130.525C442.759 130.867 442.93 131.276 442.93 131.753V133.475C442.93 133.951 442.759 134.36 442.417 134.702C442.088 135.032 441.685 135.197 441.208 135.197H425.252V140.528H438.992C439.468 140.528 439.871 140.699 440.201 141.041C440.543 141.371 440.714 141.774 440.714 142.25V143.972C440.714 144.448 440.543 144.858 440.201 145.2C439.871 145.529 439.468 145.694 438.992 145.694H425.252V151.099H441.172C441.636 151.099 442.033 151.263 442.363 151.593C442.692 151.923 442.857 152.326 442.857 152.802V154.561C442.857 155.037 442.686 155.446 442.344 155.788C442.002 156.118 441.593 156.283 441.117 156.283H420.086C419.609 156.283 419.2 156.118 418.858 155.788C418.516 155.446 418.345 155.025 418.345 154.524ZM503.154 153.187C500.894 151.025 499.764 147.685 499.764 143.166C499.764 138.635 500.894 135.289 503.154 133.127C505.425 130.953 508.827 129.866 513.358 129.866H517.443C520.216 129.866 522.664 130.586 524.789 132.028C526.927 133.469 527.995 135.441 527.995 137.945C527.995 138.665 527.782 139.185 527.354 139.502C526.927 139.807 526.511 139.96 526.108 139.96H523.928C522.805 139.96 521.931 139.288 521.309 137.945C520.405 136.015 518.903 135.05 516.802 135.05H513.541C510.866 135.05 509.053 135.624 508.1 136.772C507.147 137.92 506.671 140.046 506.671 143.148C506.671 146.25 507.147 148.381 508.1 149.541C509.053 150.689 510.866 151.263 513.541 151.263H517.187C519.287 151.263 520.783 150.299 521.675 148.369C522.298 147.013 523.177 146.335 524.313 146.335H526.493C527.067 146.335 527.519 146.549 527.849 146.977C528.191 147.404 528.362 147.868 528.362 148.369C528.362 150.873 527.299 152.845 525.174 154.286C523.049 155.715 520.6 156.43 517.828 156.43H513.358C508.827 156.43 505.425 155.349 503.154 153.187ZM586.899 154.561V131.753C586.899 131.276 587.07 130.867 587.412 130.525C587.754 130.183 588.176 130.012 588.676 130.012H592.084C592.56 130.012 592.963 130.183 593.293 130.525C593.635 130.867 593.806 131.276 593.806 131.753V139.997H606.41V131.753C606.41 131.276 606.581 130.867 606.923 130.525C607.265 130.183 607.674 130.012 608.15 130.012H611.558C612.059 130.012 612.474 130.183 612.804 130.525C613.146 130.867 613.317 131.276 613.317 131.753V154.561C613.317 155.037 613.14 155.446 612.785 155.788C612.443 156.118 612.034 156.283 611.558 156.283H608.15C607.674 156.283 607.265 156.124 606.923 155.807C606.581 155.477 606.41 155.074 606.41 154.598V145.181H593.806V154.598C593.806 155.074 593.635 155.477 593.293 155.807C592.963 156.124 592.56 156.283 592.084 156.283H588.676C588.2 156.283 587.785 156.118 587.431 155.788C587.077 155.446 586.899 155.037 586.899 154.561Z" fill="#2D2B2C"/>
<defs>
<filter id="filter0_d" x="0.121301" y="44.3354" width="28.8123" height="44.2737" filterUnits="userSpaceOnUse" color-interpolation-filters="sRGB">
<feFlood flood-opacity="0" result="BackgroundImageFix"/>
<feColorMatrix in="SourceAlpha" type="matrix" values="0 0 0 0 0 0 0 0 0 0 0 0 0 0 0 0 0 0 127 0" result="hardAlpha"/>
<feOffset dx="-0.646613" dy="1.29323"/>
<feGaussianBlur stdDeviation="1.61653"/>
<feComposite in2="hardAlpha" operator="out"/>
<feColorMatrix type="matrix" values="0 0 0 0 0 0 0 0 0 0 0 0 0 0 0 0 0 0 0.27 0"/>
<feBlend mode="normal" in2="BackgroundImageFix" result="effect1_dropShadow"/>
<feBlend mode="normal" in="SourceGraphic" in2="effect1_dropShadow" result="shape"/>
</filter>
<filter id="filter1_d" x="230.124" y="48.4944" width="28.8923" height="44.3964" filterUnits="userSpaceOnUse" color-interpolation-filters="sRGB">
<feFlood flood-opacity="0" result="BackgroundImageFix"/>
<feColorMatrix in="SourceAlpha" type="matrix" values="0 0 0 0 0 0 0 0 0 0 0 0 0 0 0 0 0 0 127 0" result="hardAlpha"/>
<feOffset dx="-0.648405" dy="1.29681"/>
<feGaussianBlur stdDeviation="1.62101"/>
<feComposite in2="hardAlpha" operator="out"/>
<feColorMatrix type="matrix" values="0 0 0 0 0 0 0 0 0 0 0 0 0 0 0 0 0 0 0.27 0"/>
<feBlend mode="normal" in2="BackgroundImageFix" result="effect1_dropShadow"/>
<feBlend mode="normal" in="SourceGraphic" in2="effect1_dropShadow" result="shape"/>
</filter>
<linearGradient id="paint0_linear" x1="20.0791" y1="83.1085" x2="3.80028" y2="57.9769" gradientUnits="userSpaceOnUse">
<stop stop-color="#00C3EE"/>
<stop offset="1" stop-color="#0092C0"/>
</linearGradient>
<linearGradient id="paint1_linear" x1="34.0721" y1="101.951" x2="11.9145" y2="59.6233" gradientUnits="userSpaceOnUse">
<stop stop-color="#00C3EE"/>
<stop offset="1" stop-color="#0092C0"/>
</linearGradient>
<linearGradient id="paint2_linear" x1="240.3" y1="51.4167" x2="256.623" y2="76.6179" gradientUnits="userSpaceOnUse">
<stop stop-color="#00D98B"/>
<stop offset="1" stop-color="#00AC6E"/>
</linearGradient>
<linearGradient id="paint3_linear" x1="226.268" y1="32.5218" x2="248.487" y2="74.967" gradientUnits="userSpaceOnUse">
<stop stop-color="#00D98B"/>
<stop offset="1" stop-color="#00AC6E"/>
</linearGradient>
</defs>
</svg>
